<?xml version="1.0" standalone="no"?>
<!DOCTYPE svg PUBLIC "-//W3C//DTD SVG 20010904//EN"
 "http://www.w3.org/TR/2001/REC-SVG-20010904/DTD/svg10.dtd">
<svg version="1.0" xmlns="http://www.w3.org/2000/svg"
 width="500.000000pt" height="500.000000pt" viewBox="0 0 500.000000 500.000000"
 preserveAspectRatio="xMidYMid meet">
<metadata>
Created by potrace 1.16, written by Peter Selinger 2001-2019
</metadata>
<g transform="translate(0.000000,500.000000) scale(0.100000,-0.100000)"
fill="#000000" stroke="none">
<path d="M1700 2848 c0 -39 -33 -114 -62 -145 -15 -16 -33 -23 -60 -23 -21 0
-38 -4 -38 -10 0 -5 11 -10 25 -10 l25 0 0 -187 c0 -212 8 -243 73 -300 77
-68 222 -61 290 14 16 18 16 23 2 57 l-16 38 -28 -44 c-60 -94 -129 -124 -170
-72 -20 25 -21 39 -21 260 l0 234 70 0 c40 0 70 4 70 10 0 6 -30 10 -70 10
l-70 0 0 100 c0 60 -4 100 -10 100 -5 0 -10 -15 -10 -32z"/>
<path d="M790 2465 l0 -325 65 0 65 0 0 180 0 179 133 4 132 3 -132 2 -133 2
0 135 0 135 48 0 c81 -1 170 -17 227 -44 l55 -25 0 40 0 39 -230 0 -230 0 0
-325z"/>
<path d="M2302 2664 c-31 -15 -75 -51 -108 -87 -39 -43 -55 -56 -54 -42 1 11
2 48 1 83 l-1 62 -60 0 -60 0 0 -270 0 -270 60 0 c50 0 60 3 60 18 1 9 2 89 3
178 l2 161 39 47 c84 103 167 135 203 79 16 -23 18 -57 21 -255 l3 -228 65 0
66 0 -4 228 c-3 194 -6 232 -21 259 -36 67 -125 82 -215 37z"/>
<path d="M2809 2677 c-98 -37 -158 -100 -179 -188 -32 -134 31 -268 156 -330
41 -20 64 -24 139 -24 82 0 97 3 158 33 50 25 67 38 63 49 -4 8 -9 26 -12 39
-3 13 -7 24 -8 24 -1 0 -29 -26 -62 -58 -63 -61 -129 -90 -178 -78 -68 17
-121 99 -132 205 l-7 61 202 0 201 0 0 55 c0 137 -81 215 -230 222 -47 2 -89
-2 -111 -10z m173 -34 c37 -35 54 -104 49 -195 l-1 -28 -140 0 -140 0 0 35 c0
19 7 56 16 82 43 129 142 177 216 106z"/>
<path d="M3350 2675 c-65 -18 -100 -42 -118 -79 -31 -63 5 -105 169 -203 139
-83 186 -121 196 -161 24 -99 -168 -110 -303 -18 l-39 26 -12 -37 c-11 -29
-11 -38 -1 -44 27 -17 148 -31 233 -28 104 5 157 26 193 79 59 87 0 174 -189
275 -106 57 -159 99 -159 125 0 32 47 60 102 60 53 0 154 -30 206 -62 34 -21
36 -20 45 34 5 34 -8 38 -153 44 -84 3 -130 0 -170 -11z"/>
<path d="M3920 2684 c-134 -26 -190 -84 -154 -159 19 -40 73 -82 189 -146 98
-54 175 -125 175 -161 0 -87 -180 -90 -306 -4 l-39 26 -12 -37 c-11 -29 -11
-38 -1 -44 28 -17 150 -31 234 -27 141 7 214 59 214 152 0 35 -7 46 -53 90
-29 28 -100 77 -157 110 -160 90 -187 123 -134 165 48 38 187 18 281 -40 l32
-20 6 28 c4 15 8 33 10 40 2 6 -6 14 -18 18 -28 8 -234 15 -267 9z"/>
<path d="M1350 2410 l0 -270 65 0 65 0 0 270 0 270 -65 0 -65 0 0 -270z"/>
</g>
</svg>
